<?xml version="1.0" encoding="UTF-8"?>
<svg id="Capa_1" xmlns="http://www.w3.org/2000/svg" version="1.1" viewBox="0 0 953.48 276.08">
  <!-- Generator: Adobe Illustrator 29.8.2, SVG Export Plug-In . SVG Version: 2.1.1 Build 3)  -->
  <defs>
    <style>
      .st0 {
        fill: #020608;
      }

      .st1 {
        fill: #ab751e;
      }
    </style>
  </defs>
  <path class="st0" d="M790.05,100.88c-8.29,0-12.86,4.45-13.7,13.34h-29.92c0-12.61,4.06-22.38,12.17-29.29,8.11-6.91,18.9-10.36,32.35-10.36s23.91,3.31,31.36,9.92c7.45,6.61,11.18,15.02,11.18,25.23,0,8.06-1.96,14.6-5.87,19.65-3.9,5.05-7.9,8.41-11.98,10.09v.72c13.46,5.17,20.19,15.56,20.19,31.19,0,11.78-3.93,21.06-11.8,27.84-7.87,6.79-18.75,10.19-32.63,10.19s-25.2-3.55-33.98-10.64c-8.77-7.09-13.16-17.66-13.16-31.72h29.93c.12,5.28,1.62,9.47,4.51,12.52,2.88,3.07,6.87,4.6,11.98,4.6s8.95-1.38,11.53-4.14c2.58-2.76,3.87-6.7,3.87-11.81s-1.8-8.92-5.4-11.45c-3.6-2.52-9.49-3.79-17.66-3.79h-5.77v-25.06h5.77c13.7,0,20.54-4.8,20.54-14.42,0-3.85-1.23-6.91-3.69-9.2-2.47-2.28-5.74-3.42-9.82-3.42"/>
  <rect class="st0" x="848.58" y="115.51" width="30.82" height="93.16"/>
  <rect class="st1" x="848.58" y="75.35" width="30.82" height="32.9"/>
  <path class="st0" d="M69.69,190.11c-13.12-12.73-19.67-28.89-19.67-48.47s6.56-35.74,19.67-48.47c13.11-12.73,29.14-19.11,48.08-19.11,14.69,0,27.74,3.89,39.15,11.67,11.43,7.78,19.39,18.57,23.91,32.37h-38.4c-5.03-9.67-13.05-14.49-24.09-14.49s-19.73,3.45-26.06,10.35c-6.34,6.9-9.51,16.12-9.51,27.68s3.17,20.76,9.51,27.66c6.33,6.91,14.84,10.36,25.5,10.36,7.66,0,13.91-1.91,18.74-5.74,4.82-3.83,8.06-8.94,9.7-15.34h-37.27v-24.47h71.9v24.47c-2.39,12.04-8.97,23.28-19.76,33.69-5.15,5.01-11.52,9.1-19.12,12.23-7.58,3.14-15.66,4.7-24.19,4.7-18.94,0-34.97-6.36-48.08-19.1"/>
  <path class="st0" d="M233.73,156.7v51.38h-32.18V75.95h52.13c15.32,0,27.23,3.96,35.77,11.86,8.54,7.9,12.81,17.44,12.81,28.61,0,7.66-2.33,15.13-6.97,22.41-4.64,7.28-12.24,12.42-22.77,15.43l32.38,53.83h-37.65l-29.73-51.38h-3.77,0ZM233.73,100.43v31.81h19.94c4.9,0,8.76-1.44,11.58-4.33,2.82-2.88,4.24-6.69,4.24-11.39s-1.45-8.56-4.33-11.58c-2.89-3.02-6.7-4.51-11.49-4.51h-19.94Z"/>
  <path class="st0" d="M326.71,154.82v-78.87h32.18v78.87c0,7.9,1.95,13.99,5.84,18.26,3.89,4.27,9.61,6.4,17.13,6.4s13.29-2.13,17.33-6.4c4.01-4.26,6.02-10.35,6.02-18.26v-78.87h32.18v78.87c0,11.67-2.73,21.75-8.18,30.21-5.46,8.47-12.36,14.66-20.71,18.55-8.35,3.89-17.42,5.83-27.2,5.83-15.3,0-28.23-4.76-38.77-14.3-10.54-9.53-15.81-22.97-15.81-40.28"/>
  <path class="st0" d="M565.56,116.42c0,8.91-3.2,17.51-9.61,25.79-3.38,4.28-8.44,7.75-15.15,10.45-6.72,2.71-14.65,4.05-23.82,4.05h-19.94v51.38h-32.18V75.95h52.13c15.31,0,27.23,3.96,35.77,11.86,8.54,7.9,12.81,17.44,12.81,28.61M497.05,132.23h19.94c4.9,0,8.76-1.44,11.58-4.33,2.82-2.89,4.24-6.69,4.24-11.39s-1.45-8.56-4.33-11.58c-2.89-3.02-6.71-4.51-11.49-4.51h-19.94v31.81h0Z"/>
  <path class="st0" d="M596.91,190.2c-13.12-12.8-19.67-28.98-19.67-48.56s6.56-35.74,19.67-48.47c13.11-12.73,29.18-19.11,48.19-19.11s35,6.37,47.99,19.11c12.99,12.73,19.48,28.9,19.48,48.47s-6.53,35.76-19.58,48.56c-13.05,12.8-29.06,19.2-48.01,19.2s-34.97-6.4-48.08-19.2M670.31,169.3c6.34-6.89,9.51-16.12,9.51-27.66s-3.17-20.77-9.51-27.68c-6.34-6.89-14.81-10.35-25.41-10.35s-19.07,3.45-25.41,10.35c-6.33,6.91-9.5,16.12-9.5,27.68s3.17,20.76,9.5,27.66c6.34,6.91,14.81,10.36,25.41,10.36s19.07-3.44,25.41-10.36"/>
</svg>